<svg xmlns="http://www.w3.org/2000/svg" width="1600" height="900" viewBox="0 0 1600 900" role="img" aria-labelledby="title desc">
  <title id="title">Superpower Agent FAD Pipeline Overview</title>
  <desc id="desc">Visual map of the FAD delivery pipeline from requirement intake to strict quality gate and ship readiness.</desc>
  <defs>
    <linearGradient id="bg" x1="0" y1="0" x2="1" y2="1">
      <stop offset="0%" stop-color="#0f172a"/>
      <stop offset="100%" stop-color="#1e293b"/>
    </linearGradient>
    <linearGradient id="card" x1="0" y1="0" x2="1" y2="1">
      <stop offset="0%" stop-color="#1d4ed8"/>
      <stop offset="100%" stop-color="#0ea5e9"/>
    </linearGradient>
    <linearGradient id="gate" x1="0" y1="0" x2="1" y2="1">
      <stop offset="0%" stop-color="#f59e0b"/>
      <stop offset="100%" stop-color="#f97316"/>
    </linearGradient>
    <style>
      .title { font-family: "Segoe UI", Arial, sans-serif; font-size: 52px; font-weight: 700; fill: #f8fafc; }
      .subtitle { font-family: "Segoe UI", Arial, sans-serif; font-size: 24px; fill: #cbd5e1; }
      .card-title { font-family: "Segoe UI", Arial, sans-serif; font-size: 24px; font-weight: 700; fill: #f8fafc; }
      .card-text { font-family: "Segoe UI", Arial, sans-serif; font-size: 18px; fill: #e2e8f0; }
      .gate-title { font-family: "Segoe UI", Arial, sans-serif; font-size: 22px; font-weight: 700; fill: #111827; }
      .gate-text { font-family: "Segoe UI", Arial, sans-serif; font-size: 17px; fill: #1f2937; }
      .note { font-family: "Segoe UI", Arial, sans-serif; font-size: 18px; fill: #93c5fd; }
      .label { font-family: "Segoe UI", Arial, sans-serif; font-size: 18px; font-weight: 700; fill: #f8fafc; }
    </style>
    <marker id="arrow" markerWidth="12" markerHeight="12" refX="10" refY="6" orient="auto">
      <path d="M0,0 L12,6 L0,12 z" fill="#cbd5e1"/>
    </marker>
  </defs>

  <rect x="0" y="0" width="1600" height="900" fill="url(#bg)"/>

  <text x="70" y="95" class="title">Superpower Agent - FAD Pipeline</text>
  <text x="70" y="135" class="subtitle">Unified flow with mandatory review, optimize, and strict quality gates</text>

  <rect x="70" y="185" width="220" height="110" rx="16" fill="url(#card)"/>
  <text x="95" y="230" class="card-title">Input</text>
  <text x="95" y="258" class="card-text">Text / Jira /</text>
  <text x="95" y="282" class="card-text">Confluence / Figma</text>

  <rect x="340" y="185" width="270" height="110" rx="16" fill="url(#card)"/>
  <text x="365" y="222" class="card-title">Brainstorm +</text>
  <text x="365" y="248" class="card-title">Discover</text>
  <text x="365" y="272" class="card-text">/discovery-ui-handoff</text>
  <text x="365" y="294" class="card-text">or /pm-intake</text>

  <rect x="660" y="185" width="240" height="110" rx="16" fill="url(#card)"/>
  <text x="685" y="230" class="card-title">Build</text>
  <text x="685" y="258" class="card-text">/pm-to-build</text>
  <text x="685" y="282" class="card-text">TDD + traceability</text>

  <rect x="950" y="185" width="210" height="110" rx="16" fill="url(#card)"/>
  <text x="975" y="230" class="card-title">QC Verify</text>
  <text x="975" y="258" class="card-text">/qc-verify-ui</text>
  <text x="975" y="282" class="card-text">Browser + DS checks</text>

  <rect x="1210" y="185" width="230" height="110" rx="16" fill="url(#card)"/>
  <text x="1235" y="230" class="card-title">Review</text>
  <text x="1235" y="258" class="card-text">/review</text>
  <text x="1235" y="282" class="card-text">Severity-first findings</text>

  <line x1="290" y1="240" x2="330" y2="240" stroke="#cbd5e1" stroke-width="4" marker-end="url(#arrow)"/>
  <line x1="610" y1="240" x2="650" y2="240" stroke="#cbd5e1" stroke-width="4" marker-end="url(#arrow)"/>
  <line x1="900" y1="240" x2="940" y2="240" stroke="#cbd5e1" stroke-width="4" marker-end="url(#arrow)"/>
  <line x1="1160" y1="240" x2="1200" y2="240" stroke="#cbd5e1" stroke-width="4" marker-end="url(#arrow)"/>

  <rect x="300" y="380" width="300" height="140" rx="18" fill="url(#gate)"/>
  <text x="330" y="430" class="gate-title">Optimize Phase</text>
  <text x="330" y="462" class="gate-text">/fad:optimize</text>
  <text x="330" y="490" class="gate-text">No behavior drift</text>

  <rect x="690" y="380" width="360" height="140" rx="18" fill="url(#gate)"/>
  <text x="720" y="430" class="gate-title">Strict Quality Gate</text>
  <text x="720" y="462" class="gate-text">/fad:quality-gate</text>
  <text x="720" y="490" class="gate-text">Lint + Type + Test + Security + Risk</text>

  <rect x="1140" y="380" width="300" height="140" rx="18" fill="url(#card)"/>
  <text x="1170" y="430" class="card-title">Finish / Ship</text>
  <text x="1170" y="458" class="card-text">/fad:pr-branch or</text>
  <text x="1170" y="484" class="card-text">/fad:ship</text>

  <line x1="1325" y1="295" x2="450" y2="370" stroke="#f8fafc" stroke-width="3" stroke-dasharray="8 8" marker-end="url(#arrow)"/>
  <line x1="600" y1="450" x2="680" y2="450" stroke="#111827" stroke-width="4" marker-end="url(#arrow)"/>
  <line x1="1050" y1="450" x2="1130" y2="450" stroke="#cbd5e1" stroke-width="4" marker-end="url(#arrow)"/>

  <rect x="70" y="610" width="1470" height="220" rx="18" fill="#0b1220" stroke="#1e3a8a" stroke-width="2"/>
  <text x="100" y="660" class="label">Audit and Governance</text>
  <text x="100" y="695" class="note">- Every phase writes markdown evidence to .planning/audit/runs/&lt;run-id&gt;/</text>
  <text x="100" y="727" class="note">- Figma evidence required when links are present</text>
  <text x="100" y="759" class="note">- High/Critical unresolved risks block progress</text>
  <text x="100" y="791" class="note">- Optional doc export supports EN/JA when explicitly requested</text>
</svg>
